<mxfile host="app.diagrams.net" modified="2020-12-09T05:47:22.743Z" agent="5.0 (X11)" etag="fpn0SHFcv07EuDEGDTUw" version="13.11.0" type="github">
  <diagram id="t4nTHuj0nMW5yGdybwuq" name="Page-1">
    <mxGraphModel dx="796" dy="492" grid="1" gridSize="10" guides="1" tooltips="1" connect="1" arrows="1" fold="1" page="1" pageScale="1" pageWidth="850" pageHeight="1100" math="0" shadow="0">
      <root>
        <mxCell id="0" />
        <mxCell id="1" parent="0" />
        <mxCell id="FTYllLZMI1tdUUeNBKAH-6" value="" style="edgeStyle=orthogonalEdgeStyle;rounded=0;orthogonalLoop=1;jettySize=auto;html=1;" edge="1" parent="1" source="FTYllLZMI1tdUUeNBKAH-1" target="FTYllLZMI1tdUUeNBKAH-2">
          <mxGeometry relative="1" as="geometry" />
        </mxCell>
        <mxCell id="FTYllLZMI1tdUUeNBKAH-1" value="MULAI" style="ellipse;whiteSpace=wrap;html=1;" vertex="1" parent="1">
          <mxGeometry x="190" y="20" width="120" height="50" as="geometry" />
        </mxCell>
        <mxCell id="FTYllLZMI1tdUUeNBKAH-7" value="" style="edgeStyle=orthogonalEdgeStyle;rounded=0;orthogonalLoop=1;jettySize=auto;html=1;" edge="1" parent="1" source="FTYllLZMI1tdUUeNBKAH-2" target="FTYllLZMI1tdUUeNBKAH-3">
          <mxGeometry relative="1" as="geometry" />
        </mxCell>
        <mxCell id="FTYllLZMI1tdUUeNBKAH-2" value="buat fungsi main" style="rounded=0;whiteSpace=wrap;html=1;" vertex="1" parent="1">
          <mxGeometry x="190" y="110" width="120" height="60" as="geometry" />
        </mxCell>
        <mxCell id="FTYllLZMI1tdUUeNBKAH-8" value="" style="edgeStyle=orthogonalEdgeStyle;rounded=0;orthogonalLoop=1;jettySize=auto;html=1;" edge="1" parent="1" source="FTYllLZMI1tdUUeNBKAH-3" target="FTYllLZMI1tdUUeNBKAH-4">
          <mxGeometry relative="1" as="geometry" />
        </mxCell>
        <mxCell id="FTYllLZMI1tdUUeNBKAH-3" value="buat variable bertipe string" style="rounded=0;whiteSpace=wrap;html=1;" vertex="1" parent="1">
          <mxGeometry x="190" y="210" width="120" height="60" as="geometry" />
        </mxCell>
        <mxCell id="FTYllLZMI1tdUUeNBKAH-9" value="" style="edgeStyle=orthogonalEdgeStyle;rounded=0;orthogonalLoop=1;jettySize=auto;html=1;" edge="1" parent="1" source="FTYllLZMI1tdUUeNBKAH-4" target="FTYllLZMI1tdUUeNBKAH-5">
          <mxGeometry relative="1" as="geometry" />
        </mxCell>
        <mxCell id="FTYllLZMI1tdUUeNBKAH-4" value="isi variabel" style="rounded=0;whiteSpace=wrap;html=1;" vertex="1" parent="1">
          <mxGeometry x="190" y="310" width="120" height="60" as="geometry" />
        </mxCell>
        <mxCell id="FTYllLZMI1tdUUeNBKAH-11" value="" style="edgeStyle=orthogonalEdgeStyle;rounded=0;orthogonalLoop=1;jettySize=auto;html=1;" edge="1" parent="1" source="FTYllLZMI1tdUUeNBKAH-5" target="FTYllLZMI1tdUUeNBKAH-10">
          <mxGeometry relative="1" as="geometry" />
        </mxCell>
        <mxCell id="FTYllLZMI1tdUUeNBKAH-5" value="cetak variabel" style="rounded=0;whiteSpace=wrap;html=1;" vertex="1" parent="1">
          <mxGeometry x="190" y="410" width="120" height="60" as="geometry" />
        </mxCell>
        <mxCell id="FTYllLZMI1tdUUeNBKAH-10" value="Selesai" style="ellipse;whiteSpace=wrap;html=1;" vertex="1" parent="1">
          <mxGeometry x="190" y="510" width="120" height="50" as="geometry" />
        </mxCell>
      </root>
    </mxGraphModel>
  </diagram>
</mxfile>
